<svg width="18" height="18" viewBox="0 0 18 18" fill="none" xmlns="http://www.w3.org/2000/svg">
<path d="M8.9955 0C4.023 0 0 4.0275 0 9C0 13.9725 4.023 18 8.9955 18C13.968 18 18 13.9725 18 9C18 4.0275 13.968 0 8.9955 0ZM15.228 5.4H12.573C12.2805 4.275 11.871 3.195 11.331 2.196C12.987 2.763 14.364 3.9105 15.228 5.4V5.4ZM9 1.8315C9.7515 2.9115 10.3365 4.113 10.719 5.4H7.281C7.6635 4.113 8.2485 2.9115 9 1.8315ZM2.034 10.8C1.8855 10.224 1.8 9.621 1.8 9C1.8 8.379 1.8855 7.776 2.034 7.2H5.0715C4.9995 7.7895 4.95 8.388 4.95 9C4.95 9.612 4.9995 10.2105 5.076 10.8H2.034ZM2.7675 12.6H5.4225C5.715 13.725 6.1245 14.805 6.6645 15.8085C5.0085 15.2415 3.6315 14.0895 2.7675 12.6ZM5.4225 5.4H2.7675C3.6315 3.9105 5.0085 2.7585 6.6645 2.1915C6.1245 3.195 5.715 4.275 5.4225 5.4ZM9 16.1685C8.253 15.0885 7.668 13.887 7.281 12.6H10.719C10.332 13.887 9.747 15.0885 9 16.1685ZM11.106 10.8H6.894C6.8085 10.2105 6.75 9.612 6.75 9C6.75 8.388 6.8085 7.7895 6.894 7.2H11.106C11.1915 7.7895 11.25 8.388 11.25 9C11.25 9.612 11.1915 10.2105 11.106 10.8ZM11.3355 15.804C11.8755 14.8005 12.285 13.725 12.5775 12.6H15.2325C14.364 14.0895 12.987 15.237 11.3355 15.804V15.804ZM12.924 10.8C12.996 10.2105 13.05 9.612 13.05 9C13.05 8.388 13.0005 7.7895 12.924 7.2H15.9615C16.11 7.776 16.2 8.379 16.2 9C16.2 9.621 16.1145 10.224 15.9615 10.8H12.924Z" fill="white"/>
</svg>
